<?xml version="1.0" encoding="utf-8"?>
<svg id="univ" width="184px" height="200px" viewBox="0 0 184 200" style="enable-background:new 0 0 250 250;" xmlns="http://www.w3.org/2000/svg" xml:space="preserve" version="1.1">

<style type="text/css">
    #path_icon_u {
        fill: #DD0031;
    }

    #ellipse_left, #ellipse_right {
        fill: #FFFFFF;
    }
</style>

<g>
    <path id="path_icon_u" d="m49.55982,59.61101l-41.54321,0l0,53.77383c0.23255,13.35928 5.06625,29.8117 18.03916,45.73946c12.78188,15.77115 35.83744,29.13043 65.93593,28.87201c30.12338,0.25058 53.17896,-13.10869 65.95253,-28.87201c12.97292,-15.92776 17.8149,-32.38802 18.05577,-45.74729l0,-53.76599l-41.52659,0l0,53.76599c0.22424,2.9522 -2.51652,14.00923 -9.12755,21.51893c-6.80206,7.66631 -15.34822,13.68033 -33.33755,13.92309c-17.98101,-0.25058 -26.53549,-6.25677 -33.32925,-13.92309c-6.62765,-7.5097 -9.35179,-18.57456 -9.12755,-21.51893l0,-53.76599l0.00831,0l-0.00002,0l0.00002,-0.00001zm-41.54321,-47.60319c0,0 0,18.43361 0,39.77242l41.54321,0c0,-21.35449 0,-39.78025 0,-39.78025l-41.55982,0.00784l0.0166,0zm167.98338,-0.00784l-41.52659,0c0,0 0,18.43361 0,39.78025l41.52659,0c0,-21.35449 0,-39.78025 0,-39.78025z"/>
    <ellipse id="ellipse_left" rx="8.94" ry="8.85" cx="28.5" cy="91"/>
    <ellipse id="ellipse_right" rx="8.94" ry="8.85" cx="155.5" cy="91"/>
</g>

</svg>
