<?xml version="1.0" encoding="utf-8"?>
<svg id="univ" x="0px" y="0px" viewBox="0 0 250 250" style="enable-background:new 0 0 250 250;" xmlns="http://www.w3.org/2000/svg" xml:space="preserve" version="1.1">

<style type="text/css">
    #path_icon_u {
        fill: #FFFFFF;
    }

    #ellipse_left, #ellipse_right {
        fill: #DCD9D9;
    }
</style>

<g>
    <path id="path_icon_u" transform="rotate(180 125 125)" d="m172.49259,170.6671l46.48883,0l0,-60.80109c-0.26024,-15.1051 -5.66937,-33.70755 -20.18668,-51.71678c-14.30353,-17.83215 -40.1038,-32.93725 -73.78544,-32.64506c-33.7095,-0.28333 -59.50979,14.82176 -73.80402,32.64506c-14.51731,18.00923 -19.93572,36.62055 -20.20526,51.72563l0,60.79223l46.47023,0l0,-60.79223c-0.25094,-3.338 2.8161,-15.83998 10.21416,-24.33106c7.61183,-8.66816 17.17539,-15.4681 37.3063,-15.74258c20.12161,0.28333 29.69448,7.07442 37.29702,15.74258c7.41665,8.49108 10.4651,21.00192 10.21416,24.33106l0,60.79223l-0.0093,0l0.00002,0l-0.00002,0.00001zm46.48883,53.82406c0,0 0,-20.84255 0,-44.96995l-46.48883,0c0,24.14513 0,44.97881 0,44.97881l46.50741,-0.00886l-0.01858,0zm-187.98139,0.00886l46.47023,0c0,0 0,-20.84255 0,-44.97881l-46.47023,0c0,24.14513 0,44.97881 0,44.97881z"/>
    <ellipse id="ellipse_left" cx="54" cy="115" rx="10" ry="10"/>
    <ellipse id="ellipse_right" cx="196" cy="115" rx="10" ry="10"/>
</g>

</svg>
