<?xml version="1.0" encoding="utf-8"?>
<svg id="univ" x="0px" y="0px" viewBox="0 0 269 72" style="enable-background:new 0 0 269 72;" xmlns="http://www.w3.org/2000/svg" xml:space="preserve" version="1.1">

<style type="text/css">
    #path_icon_u {
        fill: #DD0031;
    }

    #ellipse_left, #ellipse_right {
        fill: #FFFFFF;
    }

    #text_univtech {
        fill: #FFFFFF;
        stroke-width:0px;
        font-size: 56px;
        font-weight: bold;
        font-family: Arial;
    }
</style>

<g>
    <path id="path_icon_u" d="m16.57445,19.47723l-16.56783,0l0,21.99839c0.09275,5.46516 2.02047,12.1957 7.19419,18.71161c5.09753,6.45184 14.29231,11.917 26.29587,11.81128c12.01349,0.10251 21.20827,-5.36265 26.30249,-11.81128c5.17372,-6.5159 7.10475,-13.24965 7.20081,-18.71481l0,-21.99519l-16.5612,0l0,21.99519c0.08943,1.20772 -1.00361,5.73105 -3.64015,8.8032c-2.71273,3.13622 -6.12102,5.5965 -13.29533,5.69581c-7.171,-0.10251 -10.58261,-2.55959 -13.29202,-5.69581c-2.64317,-3.07215 -3.72958,-7.59869 -3.64015,-8.8032l0,-21.99519l0.00331,0l-0.00001,0l0.00001,0zm-16.56783,-19.47404c0,0 0,7.54103 0,16.27054l16.56783,0c0,-8.73593 0,-16.27375 0,-16.27375l-16.57445,0.00321l0.00662,0zm66.99336,-0.00321l-16.5612,0c0,0 0,7.54103 0,16.27375l16.5612,0c0,-8.73593 0,-16.27375 0,-16.27375z"/>
    <ellipse id="ellipse_left" cx="8.2" cy="32.4" rx="3.6" ry="3.6"/>
    <ellipse id="ellipse_right" cx="58.8" cy="32.4" rx="3.6" ry="3.6"/>
    <text id="text_univtech" x="70" y="70">nivtech</text>
</g>

</svg>
